<?xml version="1.0" encoding="utf-8"?>
<!-- Generator: Adobe Illustrator 18.0.0, SVG Export Plug-In . SVG Version: 6.00 Build 0)  -->
<!DOCTYPE svg PUBLIC "-//W3C//DTD SVG 1.1//EN" "http://www.w3.org/Graphics/SVG/1.1/DTD/svg11.dtd">
<svg version="1.1" id="Layer_1" xmlns="http://www.w3.org/2000/svg" xmlns:xlink="http://www.w3.org/1999/xlink" x="0px" y="0px"
	 viewBox="0 0 512 512" enable-background="new 0 0 512 512" xml:space="preserve">
<path d="M347.7,335c-16.4,45-59.7,79-110.9,79h-39.4L119,492.3v-78.8c-65,0-119-53.2-119-118.2V256c0-51.1,34-94.5,79-110.9v43
	C56,201.9,40,227,40,256v39.4c0,43.4,35.2,78.6,78.7,78.6H158v23.2l11.6-11.6l11.6-11.6h16.3h39.4c29,0,54.1-16,67.8-39H347.7z
	 M355,59h-98.5c-54.3,0-98.5,44.2-98.5,98.5s44.2,98.5,98.5,98.5h118.2c3.1,0,5.8-0.5,8.8-1l3.6-0.5l19-2.6l5.2,5.8l29.5-30
	c19.3-18.8,27.5-43.8,27.5-70.3c0-54.3-49.1-98.5-103.4-98.5 M374.7,20c75.8,0,137.8,61.9,137.8,137.7c0,38.5-16.1,73.2-41.8,98.3
	h2.3v118.2l-80.5-80.8c-5.9,0.8-11.7,1.6-17.8,1.6H256.5c-75.8,0-137.8-61.7-137.8-137.5S180.7,20,256.5,20H374.7L374.7,20z"/>
</svg>
