<?xml version="1.0" encoding="utf-8"?>
<!-- Generator: Adobe Illustrator 18.0.0, SVG Export Plug-In . SVG Version: 6.00 Build 0)  -->
<!DOCTYPE svg PUBLIC "-//W3C//DTD SVG 1.1//EN" "http://www.w3.org/Graphics/SVG/1.1/DTD/svg11.dtd">
<svg version="1.1" id="Layer_1" xmlns="http://www.w3.org/2000/svg" xmlns:xlink="http://www.w3.org/1999/xlink" x="0px" y="0px"
	 viewBox="0 0 512 512" enable-background="new 0 0 512 512" xml:space="preserve">
<path d="M433.2,39.4c21.7,0,39.4,17.7,39.4,39.4v354.5c0,21.7-17.7,39.4-39.4,39.4H78.8c-21.7,0-39.4-17.7-39.4-39.4V78.8
	c0-21.7,17.7-39.4,39.4-39.4H433.2 M433.2,0H78.8C35.4,0,0,35.4,0,78.8v354.5C0,476.6,35.4,512,78.8,512h354.5
	c43.3,0,78.8-35.4,78.8-78.8V78.8C512,35.4,476.6,0,433.2,0L433.2,0z M393.3,366l-110-110l110-110l-27.8-27.8l-110,110l-110-110
	L117.7,146l110,110l-110,110l27.8,27.8l110-110l110,110L393.3,366z"/>
</svg>
