<?xml version="1.0" encoding="utf-8"?>
<!-- Generator: Adobe Illustrator 18.0.0, SVG Export Plug-In . SVG Version: 6.00 Build 0)  -->
<!DOCTYPE svg PUBLIC "-//W3C//DTD SVG 1.1//EN" "http://www.w3.org/Graphics/SVG/1.1/DTD/svg11.dtd">
<svg version="1.1" id="Layer_1" xmlns="http://www.w3.org/2000/svg" xmlns:xlink="http://www.w3.org/1999/xlink" x="0px" y="0px"
	 viewBox="0 0 512 512" enable-background="new 0 0 512 512" xml:space="preserve">
<path d="M256,0C114.6,0,0,114.6,0,256s114.6,256,256,256s256-114.6,256-256S397.4,0,256,0z M375.3,97.3L256,217.6L136.7,97.3
	C170,72.2,211,56.7,256,56.7C301,56.7,342,72.2,375.3,97.3z M56.7,256c0-45.5,15.9-87,41.6-120.5L217.9,256L98.3,376.5
	C72.6,343,56.7,301.5,56.7,256z M136.7,414.7L256,294.4l119.3,120.3C342,439.8,301,455.3,256,455.3C211,455.3,170,439.8,136.7,414.7
	z M413.7,376.5L294.1,256l119.6-120.5c25.7,33.6,41.6,75,41.6,120.5C455.3,301.5,439.4,343,413.7,376.5z"/>
</svg>
