<?xml version="1.0" encoding="utf-8"?>
<!-- Generator: Adobe Illustrator 18.0.0, SVG Export Plug-In . SVG Version: 6.00 Build 0)  -->
<!DOCTYPE svg PUBLIC "-//W3C//DTD SVG 1.1//EN" "http://www.w3.org/Graphics/SVG/1.1/DTD/svg11.dtd">
<svg version="1.1" id="Layer_1" xmlns="http://www.w3.org/2000/svg" xmlns:xlink="http://www.w3.org/1999/xlink" x="0px" y="0px"
	 viewBox="0 0 1070 512" enable-background="new 0 0 1070 512" xml:space="preserve">
<path d="M232.6,279.3h-93v-46.5h93V279.3z M93,232.7H0v46.5h93V232.7z M930.4,232.7h-93v46.5h93V232.7z M1070,232.7h-93v46.5h93
	V232.7z M788.3,256c0,141.4-113.4,256-253.3,256c-139.9,0-253.3-114.6-253.3-256S395.1,0,535,0C674.9,0,788.3,114.6,788.3,256z
	 M632.4,322.6c0-19.5-5.2-36-15.5-49.4c-10.4-13.4-29.5-26.8-57.4-40.2c-21.1-10.1-34.5-17.1-40.2-21c-5.7-3.9-9.8-7.9-12.4-12.1
	c-2.6-4.1-3.9-9-3.9-14.6c0-9,3.2-16.3,9.6-21.9c6.4-5.6,15.6-8.4,27.6-8.4c10.1,0,20.4,1.3,30.8,3.9c10.4,2.6,23.6,7.1,39.6,13.7
	l20.4-49.3c-15.4-6.7-30.2-11.9-44.3-15.5c-14.1-3.7-28.9-5.5-44.5-5.5c-31.6,0-56.4,7.6-74.3,22.7C450,140.1,441,161,441,187.4
	c0,14.1,2.7,26.4,8.2,36.8c5.5,10.5,12.7,19.7,21.8,27.6c9.1,7.9,22.8,16.2,41,24.7c19.5,9.3,32.3,16,38.6,20.3
	c6.4,4.2,10.9,8.6,14.1,13.2c3.3,4.6,4.3,9.8,4.3,15.6c0,10.5-4.9,18.5-12.3,23.7c-7.4,5.4-20.4,8-34.3,8c-11.6,0-29.1-1.8-43.1-5.5
	c-14-3.6-14.1-10-60.6-19v58.9c46.5,12,62.2,18,94.1,18c34.6,0,71.1-7.8,90.5-23.3C622.7,370.9,632.4,349.6,632.4,322.6z"/>
</svg>
