<?xml version="1.0" encoding="utf-8"?>
<!-- Generator: Adobe Illustrator 18.0.0, SVG Export Plug-In . SVG Version: 6.00 Build 0)  -->
<!DOCTYPE svg PUBLIC "-//W3C//DTD SVG 1.1//EN" "http://www.w3.org/Graphics/SVG/1.1/DTD/svg11.dtd">
<svg version="1.1" id="Layer_1" xmlns="http://www.w3.org/2000/svg" xmlns:xlink="http://www.w3.org/1999/xlink" x="0px" y="0px"
	 viewBox="0 0 512 512" enable-background="new 0 0 512 512" xml:space="preserve">
<path id="Rename" d="M172.8,364.3l-4.8-33.1h-1.5c-10.5,13.5-21.3,23-32.4,28.5c-11.1,5.6-24.2,8.4-39.3,8.4
	c-20.5,0-36.5-5.3-47.9-15.8s-17.1-25.1-17.1-43.7c0-20.4,8.5-36.2,25.5-47.5c17-11.3,41.6-17.2,73.8-17.9l39.8-1.2v-13.8
	c0-19.9-4-34.9-12.1-45c-8.1-10.1-21.1-15.2-39-15.2c-19.3,0-39.4,5.4-60.2,16.2l-7.1-16.5c23-10.8,45.7-16.2,68.1-16.2
	c23,0,40.1,6,51.4,17.9c11.4,11.9,17,30.5,17,55.8v139H172.8z M95.8,350.8c22.3,0,39.9-6.4,52.8-19.2c12.9-12.7,19.3-30.5,19.3-53.2
	V258l-36.5,1.5c-29.3,1.4-50.3,6-62.8,13.7c-12.5,7.8-18.7,19.8-18.7,36.3c0,13.1,4,23.2,12,30.5C69.9,347.2,81.2,350.8,95.8,350.8z
	 M394.1,131.5c29.2,0,51.3,9.2,66,27.6c14.8,18.4,22.2,45.3,22.2,80.7c0,34.7-7.8,61.5-23.4,80.4c-15.5,18.8-37.5,28.3-65.7,28.3
	c-14.9,0-28.3-3.1-40.2-9.2c-11.9-6.2-21.3-14.9-28.3-26.2h-1.7l-5.4,31.5h-11.9V45.4h19v75.2c0,11.3-0.3,21.7-0.8,31.2l-0.6,16.3
	h1.3c8-12.6,17.5-21.8,28.7-27.7C364.8,134.5,378.3,131.5,394.1,131.5z M393.7,148.8c-24.6,0-42.2,7-52.9,21.2
	c-10.7,14.1-16,37.4-16,69.8v3.3c0,31.5,5.5,54.2,16.7,67.9c11.1,13.7,28.3,20.6,51.8,20.6c22.8,0,40-8,51.5-23.9
	c11.5-16,17.3-38.7,17.3-68.2C462.1,179,439.3,148.8,393.7,148.8z M264.9,0h-39.4v512h39.4V0z"/>
</svg>
