<?xml version="1.0" encoding="utf-8"?>
<!-- Generator: Adobe Illustrator 18.0.0, SVG Export Plug-In . SVG Version: 6.00 Build 0)  -->
<!DOCTYPE svg PUBLIC "-//W3C//DTD SVG 1.1//EN" "http://www.w3.org/Graphics/SVG/1.1/DTD/svg11.dtd">
<svg version="1.1" id="Layer_1" xmlns="http://www.w3.org/2000/svg" xmlns:xlink="http://www.w3.org/1999/xlink" x="0px" y="0px"
	 viewBox="0 0 512 512" enable-background="new 0 0 512 512" xml:space="preserve">
<path d="M0,0v512h512V0H0z M317.5,381.5c-19.3,15.1-45.6,22.7-79.5,22.7c-33.9,0-62-5.2-83-15.7v-46.2c13,6.4,28,11.4,43.3,15.1
	c15.4,3.7,29.6,5.5,42.8,5.5c19.4,0,33.6-3.7,42.9-11s13.8-17.2,13.8-29.6c0-11.2-4.2-20.6-12.7-28.4c-8.5-7.8-26-17-52.4-27.6
	c-27.3-11-46.6-23.6-57.8-37.8c-11.2-14.2-16.8-31.2-16.8-51.1c0-24.9,8.9-44.6,26.6-58.9c17.7-14.3,41.6-21.5,71.5-21.5
	c28.7,0,57.2,6.3,85.6,18.8l-15.6,39.9c-26.6-11.2-50.4-16.8-71.3-16.8c-15.8,0-27.9,3.4-36,10.3c-8.2,6.9-12.3,16-12.3,27.3
	c0,7.8,1.6,14.4,4.9,19.9c3.3,5.5,8.7,10.7,16.2,15.6c7.5,4.9,21,11.4,40.6,19.4c22,9.1,38.1,17.6,48.3,25.6
	c10.2,7.9,17.7,16.8,22.5,26.8c4.8,9.9,7.2,21.7,7.2,35.2C346.3,345.5,336.7,366.4,317.5,381.5z"/>
</svg>
