<?xml version="1.0" encoding="utf-8"?>
<!-- Generator: Adobe Illustrator 18.0.0, SVG Export Plug-In . SVG Version: 6.00 Build 0)  -->
<!DOCTYPE svg PUBLIC "-//W3C//DTD SVG 1.1//EN" "http://www.w3.org/Graphics/SVG/1.1/DTD/svg11.dtd">
<svg version="1.1" id="Layer_1" xmlns="http://www.w3.org/2000/svg" xmlns:xlink="http://www.w3.org/1999/xlink" x="0px" y="0px"
	 viewBox="0 0 512 512" enable-background="new 0 0 512 512" xml:space="preserve">
<path d="M256,0C114.6,0,0,114.6,0,256s114.6,256,256,256s256-114.6,256-256S397.4,0,256,0z M308.9,411.3
	c-19.6,15.5-46.7,23.3-81.6,23.3c-32.2,0-62.3-6-85.3-18v-58.9c19,9,37.4,15.3,51.5,19c14.1,3.7,26.9,5.5,38.6,5.5
	c14,0,24.8-2.7,32.3-8c7.5-5.3,11.2-13.2,11.2-23.7c0-5.9-1.7-11.1-5-15.6c-3.3-4.6-8.2-9-14.6-13.2c-6.4-4.2-19.5-11-39.2-20.3
	c-18.5-8.6-32.3-16.8-41.5-24.7c-9.2-7.9-16.6-17.1-22.1-27.6c-5.5-10.5-8.3-22.8-8.3-36.8c0-26.5,9.1-47.2,27.2-62.4
	c18.1-15.1,43.1-22.7,75.1-22.7c15.7,0,30.7,1.8,44.9,5.5c14.3,3.7,29.2,8.9,44.7,15.5l-20.7,49.3c-16.1-6.5-29.4-11.1-40-13.7
	c-10.5-2.6-20.9-3.9-31.1-3.9c-12.1,0-21.4,2.8-27.9,8.4c-6.5,5.6-9.7,12.9-9.7,21.9c0,5.6,1.3,10.5,3.9,14.6
	c2.6,4.2,6.8,8.2,12.5,12.1c5.7,3.9,19.2,10.9,40.6,21c28.2,13.4,47.6,26.8,58.1,40.2c10.5,13.4,15.7,29.9,15.7,49.4
	C338.3,374.5,328.5,395.8,308.9,411.3z M420,232h-47V93h47V232z"/>
</svg>
