<?xml version="1.0" encoding="utf-8"?>
<!-- Generator: Adobe Illustrator 18.0.0, SVG Export Plug-In . SVG Version: 6.00 Build 0)  -->
<!DOCTYPE svg PUBLIC "-//W3C//DTD SVG 1.1//EN" "http://www.w3.org/Graphics/SVG/1.1/DTD/svg11.dtd">
<svg version="1.1" id="Layer_1" xmlns="http://www.w3.org/2000/svg" xmlns:xlink="http://www.w3.org/1999/xlink" x="0px" y="0px"
	 viewBox="0 0 512 512" enable-background="new 0 0 512 512" xml:space="preserve">
<path d="M434.5,228.2c-8.5,7-16.9,13.5-25.1,19.3c-45.8,25.3-90.5,22.3-131.7,21.6l-18.7-0.2l-18.7,0.2
	c-42.5,0.7-92.2,3.6-143.1-27.9C91.5,237,85.8,232.7,80,228c-25-20-80-52.9-80-52.9l2.8,3.3c0,0,34.3,45.8,60.8,67.9l0,0.1
	c1.7,1.4,3.4,2.7,5.1,4c83.6,66.2,146.5,86.8,190.4,86.8c63.1,0,124.1-35,189.2-88.5c1.1-0.9,2.1-1.7,3.2-2.6l0,0
	c23.7-20.6,58.2-68.4,58.2-68.4l2.4-2.9C512,174.8,456.5,210,434.5,228.2z"/>
</svg>
