<?xml version="1.0" encoding="utf-8"?>
<!-- Generator: Adobe Illustrator 18.0.0, SVG Export Plug-In . SVG Version: 6.00 Build 0)  -->
<!DOCTYPE svg PUBLIC "-//W3C//DTD SVG 1.1//EN" "http://www.w3.org/Graphics/SVG/1.1/DTD/svg11.dtd">
<svg version="1.1" id="Layer_1" xmlns="http://www.w3.org/2000/svg" xmlns:xlink="http://www.w3.org/1999/xlink" x="0px" y="0px"
	 viewBox="0 0 512 512" enable-background="new 0 0 512 512" xml:space="preserve">
<path d="M512,288.1l0-61.1h-71.6c-4.7-29-15.5-55-31.4-77.8L459.8,99l-42.8-43.4l-50.7,50c-22.8-16.9-49.4-28.9-78.6-34.1L287.8,0
	h-60.7L227,71c-30.8,4.4-59,15.7-82.7,33.1L93.5,53.3L50.4,96.4l51.4,51.4C86.1,170.2,75.2,196,70.3,224H0v61h69.5
	c4.1,30,14.6,58.9,31,82.9l-47.7,47l42.8,43.3l47.3-46.5c23.4,17.6,50.1,29.4,81.1,34.3V512h61v-66.2c30-5,57.5-16.8,80.9-34.1
	l48.7,48.6l43.1-43.1l-49-48.9c16.5-23.5,27.4-51.4,31.9-80.4L512,288.1z M254.2,410.8c-84.5,0-149.6-68.2-149.6-152.3
	c0-84.1,65.1-152.3,149.6-152.3c84.5,0,151.6,68.2,151.6,152.3C405.8,342.7,338.7,410.8,254.2,410.8z M253.1,165.1
	c-49.4,0-89.5,42.3-89.5,94.3c0,51.8,40.2,94,89.5,94c49.4,0,89.6-42.2,89.6-94C342.6,207.5,302.5,165.1,253.1,165.1z M253.1,321.1
	c-31.5,0-57.2-27.6-57.2-61.6c0-34.2,25.7-62,57.2-62c31.6,0,57.2,27.8,57.2,62C310.3,293.5,284.6,321.1,253.1,321.1z"/>
</svg>
