<?xml version="1.0" encoding="utf-8"?>
<!-- Generator: Adobe Illustrator 18.0.0, SVG Export Plug-In . SVG Version: 6.00 Build 0)  -->
<!DOCTYPE svg PUBLIC "-//W3C//DTD SVG 1.1//EN" "http://www.w3.org/Graphics/SVG/1.1/DTD/svg11.dtd">
<svg version="1.1" id="Layer_1" xmlns="http://www.w3.org/2000/svg" xmlns:xlink="http://www.w3.org/1999/xlink" x="0px" y="0px"
	 viewBox="0 0 512 512" enable-background="new 0 0 512 512" xml:space="preserve">
<path d="M294.3,36.8c-113,0-209.5,86-222.7,192.8l-47.9-47.9L0,205.3l92,91.9l0,0l1.5,1.5l93.4-93.4l-23.7-23.7l-59.1,59.1
	c7.6-93.7,91.5-170.5,190.2-170.5c101.6,0,184.2,82.7,184.2,184.2c0,103.3-82.6,187.3-184.2,187.3c-54.8,0-107.2-26.4-144-72.4
	l-26.2,20.9c43.2,54,105.2,85,170.1,85c120.1,0,217.7-99,217.7-220.8C512,134.4,414.4,36.8,294.3,36.8z"/>
</svg>
