<?xml version="1.0" encoding="utf-8"?>
<!-- Generator: Adobe Illustrator 18.0.0, SVG Export Plug-In . SVG Version: 6.00 Build 0)  -->
<!DOCTYPE svg PUBLIC "-//W3C//DTD SVG 1.1//EN" "http://www.w3.org/Graphics/SVG/1.1/DTD/svg11.dtd">
<svg version="1.1" id="Layer_1" xmlns="http://www.w3.org/2000/svg" xmlns:xlink="http://www.w3.org/1999/xlink" x="0px" y="0px"
	 viewBox="0 0 512 512" enable-background="new 0 0 512 512" xml:space="preserve">
<path d="M323.5,1.5c-102.3,0-184.2,81.9-184.2,184.2c0,44.9,16.4,83.5,42.8,115.4L74.3,407H0v103h102v-75.2L208.1,327
	c31.8,26.4,71.4,42.8,116.3,42.8c102.3,0,187.1-81.9,187.1-184.2S425.8,1.5,323.5,1.5z M64,479H30v-34h34V479z M323.5,339.1
	c-36.4,0-69.3-13-95.5-33.9l24.7-24.7c20,15.1,44.4,24.5,70.8,24.5c64.8,0,119.4-54.6,119.4-119.4c0-64.8-54.6-119.4-119.4-119.4
	s-119.4,54.6-119.4,119.4c0,26.4,9.4,50.8,24.5,70.8l-24.7,24.7C183,254.9,170,222.1,170,185.6c0-85.3,68.2-153.5,153.5-153.5
	S477,100.4,477,185.6S408.8,339.1,323.5,339.1z M238.2,185.6c0-47.7,37.5-85.3,85.3-85.3s85.3,37.5,85.3,85.3
	c0,47.7-37.5,85.3-85.3,85.3c-17.6,0-33.7-5.1-47.2-13.9l20.1-20H375V134H272v78.7l-20,20.1C243.2,219.4,238.2,203.2,238.2,185.6z
	 M306,203v-34h35v34H306z"/>
</svg>
