<?xml version="1.0" encoding="utf-8"?>
<!-- Generator: Adobe Illustrator 18.0.0, SVG Export Plug-In . SVG Version: 6.00 Build 0)  -->
<!DOCTYPE svg PUBLIC "-//W3C//DTD SVG 1.1//EN" "http://www.w3.org/Graphics/SVG/1.1/DTD/svg11.dtd">
<svg version="1.1" id="Layer_1" xmlns="http://www.w3.org/2000/svg" xmlns:xlink="http://www.w3.org/1999/xlink" x="0px" y="0px"
	 viewBox="0 0 512 512" enable-background="new 0 0 512 512" xml:space="preserve">
<path d="M512.1,203.4l-25.2-25.3L296,369h-53.2l-38-36.7L423,114.2L397.7,89L179.3,307.6L143,272.4V216L333.9,25L308.6-0.1
	L117.6,191H36v107h81.8l36.2,35l-72,72H0v107h107v-82l72.4-72.4l34.6,33.5V476h107v-81.6L512.1,203.4z M107,262H72v-36h35V262z
	 M72,476H36v-36h36V476z M286,440h-36v-35h36V440z"/>
</svg>
