<?xml version="1.0" encoding="utf-8"?>
<!-- Generator: Adobe Illustrator 18.0.0, SVG Export Plug-In . SVG Version: 6.00 Build 0)  -->
<!DOCTYPE svg PUBLIC "-//W3C//DTD SVG 1.1//EN" "http://www.w3.org/Graphics/SVG/1.1/DTD/svg11.dtd">
<svg version="1.1" id="Layer_1" xmlns="http://www.w3.org/2000/svg" xmlns:xlink="http://www.w3.org/1999/xlink" x="0px" y="0px"
	 viewBox="0 0 512 512" enable-background="new 0 0 512 512" xml:space="preserve">
<polygon points="512,236 434,236 434,117.7 434,78.3 434,0 394,0 394,78 355,78 315.6,78 276,78 276,0 237,0 237,78.3 237,117.7 
	237,354 197.4,354 158,354 119,354 119,235.8 119,196.4 119,78 79,78 79,196 0,196 0,236 79,236 79,354 79,393.3 79,512 119,512 
	119,393 158,393 197.4,393 237,393 237,512 276,512 276,393.3 276,354 276,118 315.6,118 355,118 394,118 394,235.8 394,275.2 
	394,393 434,393 434,275 512,275 "/>
</svg>
