<?xml version="1.0" encoding="utf-8"?>
<!-- Generator: Adobe Illustrator 18.0.0, SVG Export Plug-In . SVG Version: 6.00 Build 0)  -->
<!DOCTYPE svg PUBLIC "-//W3C//DTD SVG 1.1//EN" "http://www.w3.org/Graphics/SVG/1.1/DTD/svg11.dtd">
<svg version="1.1" id="Layer_1" xmlns="http://www.w3.org/2000/svg" xmlns:xlink="http://www.w3.org/1999/xlink" x="0px" y="0px"
	 viewBox="0 0 512 512" enable-background="new 0 0 512 512" xml:space="preserve">
<path d="M146.1,19.5c0-7.2,5.8-19.5,13-19.5h195.3c7.2,0,13,12.3,13,19.5s-5.8,19.5-13,19.5H159.1C152,39,146.1,26.7,146.1,19.5z
	 M444.2,426.8l-77.3-167.3c-23-47.8-31.9-101.2-31.9-154.3V78h-32.3c-0.5,40-1.5,116.5,37.6,197.7l73.5,150.5
	c3.6,7.5,3.2,21.8-1.3,28.9c-4.5,7.1-12.2,16.9-20.5,16.9H121.5c-8.4,0-16.1-11-20.5-18.1s-4.9-19.2-1.3-26.7l73.5-149.7
	C211.7,197.2,211.1,118,210.6,78H177v27.2c0,53.1-8.2,106.5-31.2,154.3L67.3,426.8c-6,12.5-4.2,40.8,3.2,52.6
	c7.4,11.8,21.1,32.6,35,32.6H408c13.9,0,26.6-20.8,34-32.6C449.4,467.6,450.2,439.3,444.2,426.8z M178,413h79v-79h-79V413z M257,334
	h39v-39h-39V334z M296,413h40v-39h-40V413z"/>
</svg>
