<?xml version="1.0" encoding="utf-8"?>
<!-- Generator: Adobe Illustrator 18.0.0, SVG Export Plug-In . SVG Version: 6.00 Build 0)  -->
<!DOCTYPE svg PUBLIC "-//W3C//DTD SVG 1.1//EN" "http://www.w3.org/Graphics/SVG/1.1/DTD/svg11.dtd">
<svg version="1.1" id="Layer_1" xmlns="http://www.w3.org/2000/svg" xmlns:xlink="http://www.w3.org/1999/xlink" x="0px" y="0px"
	 viewBox="0 0 512 512" enable-background="new 0 0 512 512" xml:space="preserve">
<path d="M486.4,412.8l-6.4-35.2h-3.2c-12.8,16-22.4,25.6-35.2,32S416,416,396.8,416c-22.4,0-41.6-6.4-54.4-19.2S320,368,320,345.6
	c0-48,38.4-73.6,115.2-76.8h41.6v-16c0-19.2-3.2-32-12.8-41.6s-22.4-12.8-38.4-12.8c-19.2,0-41.6,6.4-67.2,19.2l-9.6-28.8
	c12.8-6.4,25.6-12.8,38.4-16c12.8-3.2,28.8-6.4,41.6-6.4c28.8,0,51.2,6.4,64,19.2c12.8,12.8,19.2,32,19.2,60.8v163.2L486.4,412.8
	L486.4,412.8z M403.2,387.2c22.4,0,41.6-6.4,54.4-19.2c12.8-12.8,19.2-28.8,19.2-51.2v-22.4h-35.2c-28.8,0-51.2,6.4-64,12.8
	c-12.8,6.4-19.2,19.2-19.2,38.4c0,12.8,3.2,22.4,12.8,28.8S387.2,387.2,403.2,387.2z M249.6,416L208,313.6H76.8L38.4,416H0L128,96
	h32l128,320H249.6z M195.2,281.6L160,182.4c-6.4-12.8-9.6-28.8-16-48c-3.2,16-9.6,32-12.8,48l-38.4,99.2L195.2,281.6z"/>
</svg>
