<?xml version="1.0" encoding="utf-8"?>
<!-- Generator: Adobe Illustrator 18.0.0, SVG Export Plug-In . SVG Version: 6.00 Build 0)  -->
<!DOCTYPE svg PUBLIC "-//W3C//DTD SVG 1.1//EN" "http://www.w3.org/Graphics/SVG/1.1/DTD/svg11.dtd">
<svg version="1.1" id="Layer_1" xmlns="http://www.w3.org/2000/svg" xmlns:xlink="http://www.w3.org/1999/xlink" x="0px" y="0px"
	 viewBox="0 0 512 512" enable-background="new 0 0 512 512" xml:space="preserve">
<path d="M48.9,369l-45.6-9.3C7.9,337.2,51.5,140,162.5,140c60.9,0,89.3,57.1,114.4,107.4c24.7,49.7,43.2,82.2,73.5,82.2
	c60.5,0,104.6-141.4,115.2-190.9l45.5,9.8c-5,23.3-52,227.7-160.8,227.7c-61.5,0-90-57.4-115.2-108c-24.5-49.3-42.9-81.6-72.7-81.6
	C100.2,186.5,58.5,321.7,48.9,369z M0,512h512v-47H0V512z M0,0v46h512V0H0z"/>
</svg>
