<?xml version="1.0" encoding="utf-8"?>
<!-- Generator: Adobe Illustrator 18.0.0, SVG Export Plug-In . SVG Version: 6.00 Build 0)  -->
<!DOCTYPE svg PUBLIC "-//W3C//DTD SVG 1.1//EN" "http://www.w3.org/Graphics/SVG/1.1/DTD/svg11.dtd">
<svg version="1.1" id="Layer_1" xmlns="http://www.w3.org/2000/svg" xmlns:xlink="http://www.w3.org/1999/xlink" x="0px" y="0px"
	 viewBox="0 0 512 512" enable-background="new 0 0 512 512" xml:space="preserve">
<path d="M316.1,92.7c-1.5-0.2-7-30.5,0-29.7c137,15.3,174.1,114.3,174.1,194.2c0,19.5-4,38.3-11,56.2c-1.8,4.5-20.7-21.4-19.5-25
	c3.7-10.9,5.8-21.7,5.8-32.3C465.6,205.7,439.5,109.1,316.1,92.7z M236.7,454.8c-76.5,0,56.3-170.7-54.1-170.7
	C97,284,82.6,361.1,56.2,370.2c-49,8.2-23.2-78.8-18.8-91c7.8-21.7,38.5-101.6,120.3-149.6c2.5-1.4-9.1-26.3-11.9-24.6
	C51.9,161.1,8.1,258.8,3.1,299.9c-7.8,39.5-3.9,110.2,48.6,101.4c52.4-8.8,61.3-92.9,131-92.9c68.9,0-67.6,175.6,54.1,175.6
	c47.8,0,126.4-34.2,183.4-88.2c-7.1-7.9-14.1-15.8-21-23.5C348.5,419.6,280.2,454.8,236.7,454.8z M188.5,76.2
	c11.1,27.6,19.5,49.3,34.9,67.7c15.4,18.4,52.3,23.1,65,3.3c12.7-19.8-10.4-68.8-24.2-84.4c-13.8-15.6-23-29.6-56.3-34.4
	c-33.3-4.8-73.8,27.8-73.8,27.8S177.4,48.6,188.5,76.2z M342,170.2c0,0-15.2-26.5-38.3,0c-20.7,23.7,0,43.8,0,43.8
	s198.4,236.3,208,225.3C521.2,428.3,342,170.2,342,170.2z"/>
</svg>
