<?xml version="1.0" encoding="utf-8"?>
<!-- Generator: Adobe Illustrator 18.0.0, SVG Export Plug-In . SVG Version: 6.00 Build 0)  -->
<!DOCTYPE svg PUBLIC "-//W3C//DTD SVG 1.1//EN" "http://www.w3.org/Graphics/SVG/1.1/DTD/svg11.dtd">
<svg version="1.1" id="Layer_1" xmlns="http://www.w3.org/2000/svg" xmlns:xlink="http://www.w3.org/1999/xlink" x="0px" y="0px"
	 viewBox="0 0 512 512" enable-background="new 0 0 512 512" xml:space="preserve">
<path d="M394.3,78c43.4,0,78.7,35.6,78.7,79v78.8c0,43.4-35.2,79.2-78.7,79.2H236.8h-16.3l-11.6,11.3L158,377V354v-39h-39.3
	C75.2,315,40,279.2,40,235.8V157c0-43.4,35.2-79,78.7-79H394 M394.3,39H118.7C53.7,39,0,92.1,0,157v78.8C0,300.8,54,354,119,354
	v118.2L236.8,354h157.5c65,0,117.7-53.2,117.7-118.2V157C512,92.1,459.3,39,394.3,39L394.3,39z"/>
</svg>
