<?xml version="1.0" encoding="utf-8"?>
<!-- Generator: Adobe Illustrator 18.0.0, SVG Export Plug-In . SVG Version: 6.00 Build 0)  -->
<!DOCTYPE svg PUBLIC "-//W3C//DTD SVG 1.1//EN" "http://www.w3.org/Graphics/SVG/1.1/DTD/svg11.dtd">
<svg version="1.1" id="Layer_1" xmlns="http://www.w3.org/2000/svg" xmlns:xlink="http://www.w3.org/1999/xlink" x="0px" y="0px"
	 viewBox="0 0 512 512" enable-background="new 0 0 512 512" xml:space="preserve">
<path d="M255.5,367.3c-30.2,0-58.7-11.8-80.1-33.1c-21.4-21.4-33.1-49.8-33.1-80s11.8-58.6,33.1-80c21.4-21.4,49.8-33.1,80.1-33.1
	h19.3l-2.7,18.9c-0.6,2.9-0.9,5.9-0.9,9c0,25,20.3,45.3,45.3,45.3c8.2,0,16-2.1,22.9-6.2l16.4-9.7l6.4,17.9
	c4.3,12.2,6.6,25,6.6,38.1c0,30.2-11.8,58.7-33.2,80C314.2,355.5,285.8,367.3,255.5,367.3z M240,173.9
	c-16.3,3.1-30.8,10.8-42.4,22.4c-15.4,15.4-24,36-24,57.8s8.5,42.4,24,57.9c30.9,30.9,84.9,30.9,115.7,0c15.5-15.5,24-36,24-57.9
	c0-3.8-0.2-7.6-0.8-11.4c-6.5,1.8-13.3,2.7-20.1,2.7C275.9,245.4,242.6,213.7,240,173.9z M258.2,429.3
	c-52.7,0-128.3-34.3-188.1-85.5c-23.1-19.7-42.9-41.7-57.3-57.7L0,272.1l4.9-9.6c7-13.8,20.2-28.4,34.2-44
	c8.6-9.6,17.7-19.6,25.7-30c27.8-35.8,59.3-59.7,80.9-73.4c32.7-20.9,71.8-32.4,110-32.4c29.6,0,74.6,9.7,108.7,31.5
	c27.4,17.5,54.9,42.1,81.9,73.3l11.1,12.8c19.8,22.6,36.8,42.1,48.3,60.6l6.2,9.9L496.9,288c-13.8,15.9-32.7,37.8-53.2,55.8
	C385.5,394.9,311,429.3,258.2,429.3z M38.4,267.8C52,282.9,70.1,302.6,90.5,320c53.7,45.9,122.7,77.9,167.7,77.9
	c45,0,112.7-32,164.8-77.8c18.7-16.5,36.6-37.1,49.8-52.3c-10-14-23.6-29.5-38.9-47L422.6,208c-25-28.9-50.2-51.5-75-67.4
	c-28.6-18.3-67.7-26.6-91.9-26.6c-32.3,0-65.4,9.8-93.2,27.5c-19.5,12.5-48,34-73,66.2c-8.5,11-18.1,21.7-27.2,31.8
	C53.2,249.6,44.5,259.4,38.4,267.8z"/>
</svg>
