<?xml version="1.0" encoding="utf-8"?>
<!-- Generator: Adobe Illustrator 18.0.0, SVG Export Plug-In . SVG Version: 6.00 Build 0)  -->
<!DOCTYPE svg PUBLIC "-//W3C//DTD SVG 1.1//EN" "http://www.w3.org/Graphics/SVG/1.1/DTD/svg11.dtd">
<svg version="1.1" id="Layer_1" xmlns="http://www.w3.org/2000/svg" xmlns:xlink="http://www.w3.org/1999/xlink" x="0px" y="0px"
	 viewBox="0 0 1070 512" enable-background="new 0 0 1070 512" xml:space="preserve">
<path d="M232.6,279.3h-93v-46.5h93V279.3z M93,232.7H0v46.5h93V232.7z M930.4,232.7h-93v46.5h93V232.7z M1070,232.7h-93v46.5h93
	V232.7z M535.4,154.8c-25.2,0-44.2,8.5-57,25.5c-12.8,17-19.2,42.2-19.2,75.6s6.3,58.5,19,75.5s31.6,25.4,56.8,25.4
	c50.6,0,75.8-33.6,75.8-100.8C610.8,188.5,585.7,154.8,535.4,154.8z M790.9,256c0,141.4-114.6,256-255.9,256S279.1,397.4,279.1,256
	C279.1,114.6,393.7,0,535,0S790.9,114.6,790.9,256z M677.3,255.9c0-49.6-12.2-87.7-36.5-114.2c-24.3-26.4-59.4-48.6-105.4-48.6
	s-81.2,22.1-105.8,48.4c-24.6,26.2-36.9,64.3-36.9,114c0,49.8,12.3,88,36.8,114.5c24.5,26.6,59.7,48.9,105.5,48.9
	s81-22.3,105.5-48.9C665,343.5,677.3,305.4,677.3,255.9z"/>
</svg>
