<?xml version="1.0" encoding="utf-8"?>
<!-- Generator: Adobe Illustrator 18.0.0, SVG Export Plug-In . SVG Version: 6.00 Build 0)  -->
<!DOCTYPE svg PUBLIC "-//W3C//DTD SVG 1.1//EN" "http://www.w3.org/Graphics/SVG/1.1/DTD/svg11.dtd">
<svg version="1.1" id="Layer_1" xmlns="http://www.w3.org/2000/svg" xmlns:xlink="http://www.w3.org/1999/xlink" x="0px" y="0px"
	 viewBox="0 0 512 512" enable-background="new 0 0 512 512" xml:space="preserve">
<path d="M58.9,295.4c-5.2,2.2-10.8,3.3-16.3,3.3l0,0c0,0,0,0-0.1,0c-5.5,0-11-1.1-16.2-3.3c-10.4-4.3-18.7-12.6-23.1-23.1
	c-4.3-10.4-4.3-22.2,0-32.6c4.3-10.4,12.6-18.7,23.1-23.1c10.4-4.3,22.2-4.3,32.6,0c10.4,4.3,18.8,12.6,23.1,23.1
	c4.3,10.4,4.3,22.2,0,32.6C77.7,282.7,69.4,291.1,58.9,295.4z M252.7,272.3c4.3-10.4,4.3-22.2,0-32.6c-4.3-10.4-12.6-18.8-23.1-23.1
	c-10.4-4.3-22.2-4.3-32.6,0c-10.4,4.3-18.7,12.6-23.1,23.1c-4.3,10.4-4.3,22.2,0,32.6c4.3,10.4,12.6,18.7,23.1,23.1
	c5.2,2.1,10.7,3.3,16.2,3.3c0,0,0,0,0.1,0l0,0c5.6,0,11.1-1.1,16.3-3.3C240,291.1,248.4,282.7,252.7,272.3z M426.7,170.7
	c-47.1,0-85.3,38.2-85.3,85.3s38.2,85.3,85.3,85.3S512,303.1,512,256S473.8,170.7,426.7,170.7z"/>
</svg>
