<?xml version="1.0" encoding="utf-8"?>
<!-- Generator: Adobe Illustrator 18.0.0, SVG Export Plug-In . SVG Version: 6.00 Build 0)  -->
<!DOCTYPE svg PUBLIC "-//W3C//DTD SVG 1.1//EN" "http://www.w3.org/Graphics/SVG/1.1/DTD/svg11.dtd">
<svg version="1.1" id="Layer_1" xmlns="http://www.w3.org/2000/svg" xmlns:xlink="http://www.w3.org/1999/xlink" x="0px" y="0px"
	 viewBox="0 0 512 512" enable-background="new 0 0 512 512" xml:space="preserve">
<path d="M253.3,0C111.3,0,1.9,114.6,1.9,256s109.4,256,251.4,256c142,0,255.8-114.6,255.8-256S395.3,0,253.3,0z M64.5,256
	c0-44.7,16.4-85.2,42.8-117.5l259.6,265.7c-31.6,24.4-70.7,39.6-113.5,39.6C149.2,443.7,64.5,359.5,64.5,256z M398.4,373.1
	L139,107.6c31.8-24.3,71.2-39.4,114.4-39.4c103.1,0,187,84.2,187,187.7C440.4,300.5,424.2,340.9,398.4,373.1z"/>
</svg>
