<?xml version="1.0" encoding="utf-8"?>
<!-- Generator: Adobe Illustrator 18.0.0, SVG Export Plug-In . SVG Version: 6.00 Build 0)  -->
<!DOCTYPE svg PUBLIC "-//W3C//DTD SVG 1.1//EN" "http://www.w3.org/Graphics/SVG/1.1/DTD/svg11.dtd">
<svg version="1.1" id="Layer_1" xmlns="http://www.w3.org/2000/svg" xmlns:xlink="http://www.w3.org/1999/xlink" x="0px" y="0px"
	 viewBox="0 0 512 512" enable-background="new 0 0 512 512" xml:space="preserve">
<path d="M504,235.3c-0.1-0.1-0.1-0.1-0.2-0.1L333.2,64.7c-11.1-11.1-29.2-11.1-40.2,0c-11.1,11.1-11.1,29.1,0,40.2L415.1,227H0v57
	h415.1L293,406.1c-11.1,11.1-11.1,29.2,0,40.2c11.1,11.1,29.2,11,40.2,0l170.5-170.5c0.1-0.1,0.1-0.1,0.2-0.1
	c5.5-5.5,8.3-12.8,8.3-20.2C512.3,248.2,509.5,240.9,504,235.3z"/>
</svg>
