<?xml version="1.0" encoding="utf-8"?>
<!-- Generator: Adobe Illustrator 18.0.0, SVG Export Plug-In . SVG Version: 6.00 Build 0)  -->
<!DOCTYPE svg PUBLIC "-//W3C//DTD SVG 1.1//EN" "http://www.w3.org/Graphics/SVG/1.1/DTD/svg11.dtd">
<svg version="1.1" id="Layer_1" xmlns="http://www.w3.org/2000/svg" xmlns:xlink="http://www.w3.org/1999/xlink" x="0px" y="0px"
	 viewBox="0 0 512 512" enable-background="new 0 0 512 512" xml:space="preserve">
<path d="M300.1,337.3c0,13.8-4.2,24-12.5,30.6c-8.3,6.7-21.2,10.1-38.6,10.1h-42v-78h39.9C282.4,300,300.1,312.5,300.1,337.3z
	 M281.8,241.9c7.7-5.3,11.6-14.2,11.6-26.4c0-11.4-4.2-19.4-12.6-24.3c-8.4-5-21.6-7.2-39.8-7.2h-34v66h37.5
	C261.6,250,274.1,247.3,281.8,241.9z M512,0v512H0V0H512z M365.9,343.6c0-19.2-4.3-34.5-12.7-46.1c-8.4-11.6-21.2-19.5-41.2-23.7v-2
	c14-2.3,25.2-9.2,33.6-20.6c8.4-11.4,12.7-26.1,12.7-43.9c0-26.3-9.6-45.3-28.7-57.4c-19.2-12.1-49.9-17.8-92.3-17.8H145v298h111.1
	c33.8,0,60.6-7.4,80.3-22.7C356.1,392,365.9,370.8,365.9,343.6z"/>
</svg>
