<?xml version="1.0" encoding="utf-8"?>
<!-- Generator: Adobe Illustrator 18.0.0, SVG Export Plug-In . SVG Version: 6.00 Build 0)  -->
<!DOCTYPE svg PUBLIC "-//W3C//DTD SVG 1.1//EN" "http://www.w3.org/Graphics/SVG/1.1/DTD/svg11.dtd">
<svg version="1.1" id="Layer_1" xmlns="http://www.w3.org/2000/svg" xmlns:xlink="http://www.w3.org/1999/xlink" x="0px" y="0px"
	 viewBox="0 0 512 512" enable-background="new 0 0 512 512" xml:space="preserve">
<path d="M512,91.4V0H402v0.6c-25,1-73.5,3.9-121.1,14.5C214.9,30.9,172.4,62,158,73H73v85.1c-13,16.4-52.3,69.4-65.6,135.9
	C2.4,339,0.9,380,0.4,402H0v110h110v-0.5c33-0.9,105.3-4.2,151.1-18.6c44.5-12.7,80.1-42,93.4-54H439v-85.6
	c9-13.7,36.2-54.3,57.7-125.1C515.1,165.6,512,97.7,512,91.4z M439,37h36v36h-36V37z M110,110h36v36h-36V110z M73,475H37v-36h36V475
	z M402,402h-36v-36h36V402z M411.1,329H329v83.4c-12,10.4-42.1,35-78.4,45.4C209.6,470.7,142,474.1,110,475v-73H36.9
	c0.5-22,2.1-60.8,6.7-102.3C54.5,245,87.8,199,100.2,183H183v-82.8c13-10.4,50.1-35.9,106.1-49.3C332.6,41.2,378,38.2,402,37.2V110
	h73.4c-0.1,23-2.2,67.3-14.1,107.8C443,278.4,420.6,315,411.1,329z"/>
</svg>
