<?xml version="1.0" encoding="utf-8"?>
<!-- Generator: Adobe Illustrator 18.0.0, SVG Export Plug-In . SVG Version: 6.00 Build 0)  -->
<!DOCTYPE svg PUBLIC "-//W3C//DTD SVG 1.1//EN" "http://www.w3.org/Graphics/SVG/1.1/DTD/svg11.dtd">
<svg version="1.1" id="Layer_1" xmlns="http://www.w3.org/2000/svg" xmlns:xlink="http://www.w3.org/1999/xlink" x="0px" y="0px"
	 viewBox="0 0 512 512" enable-background="new 0 0 512 512" xml:space="preserve">
<path d="M256.5,59.1c43.5,0,81.7,45.5,81.7,97.4c0,10.7-5,41.5-51.3,98.1l-7.7,9.3l-1.1,12c-1,11.4-4.2,45.9,34.2,58.6l124.2,48.2
	c1.2,0.9,2.4,1.7,3.6,2.4c14,12.1,30.6,49.9,32.8,63.6c-2.3,1.1-11,4.1-39.2,4.1H256.5H79.3c-30,0-37.9,0-38.7,0c0,0-0.1,0-0.1,0
	c0,0-0.1-1.9-0.4-2.5c2.7-15,19-52.6,32.7-64.4c1.1-0.7,2.3-2,3.5-2.8l122.5-47.7c40.1-13.4,37-48,35.9-59.4l-1.3-12.3l-7.7-9.4
	c-46.1-56.4-51.1-87.3-51.1-97.9C174.8,104.6,213,59.1,256.5,59.1 M256.5,19.7c-64.2,0-121.1,60.8-121.1,136.8
	c0,49.8,48.4,108.7,60.2,123.1c1.3,14.4-1.3,15.7-9.2,18.3L58.1,347.7c-2.6,1.3-5.5,3.9-8.1,5.2c-27.5,21-50,79.1-50,97.4v2.6
	C7,483,25.6,492,79.3,492h177.2h177.2c53.7,0,72.3-9,78.3-39.1v-2.6c0-18.3-22-76.5-49.5-97.4c-2.6-1.3-5.1-3.9-7.7-5.2l-128.3-49.8
	c-7.9-2.6-10.4-3.9-9.1-18.3c11.8-14.4,60.3-73.3,60.3-123.1C377.6,80.5,320.7,19.7,256.5,19.7L256.5,19.7z"/>
</svg>
